<?xml version="1.0" standalone="no"?>
<!DOCTYPE svg PUBLIC "-//W3C//DTD SVG 20010904//EN"
 "http://www.w3.org/TR/2001/REC-SVG-20010904/DTD/svg10.dtd">
<svg version="1.0" xmlns="http://www.w3.org/2000/svg"
 width="512.000000pt" height="512.000000pt" viewBox="0 0 512.000000 512.000000"
 preserveAspectRatio="xMidYMid meet">

<g transform="translate(0.000000,512.000000) scale(0.100000,-0.100000)"
fill="#000000" stroke="none">
<path d="M3602 4053 c-58 -20 -146 -103 -169 -158 -10 -25 -22 -45 -26 -45 -5
0 -21 8 -35 19 -45 31 -101 44 -171 39 -78 -6 -131 -31 -182 -85 -48 -49 -69
-92 -76 -154 -5 -45 -9 -52 -43 -69 -79 -40 -134 -109 -154 -192 l-6 -28 -543
0 c-597 0 -608 -1 -679 -60 -20 -16 -47 -51 -60 -77 l-23 -48 -3 -716 -3 -716
-58 -6 c-31 -2 -76 -14 -98 -26 -69 -35 -133 -125 -133 -189 0 -9 -14 -11 -52
-6 -69 7 -134 -24 -163 -78 -17 -32 -25 -38 -68 -43 -28 -4 -67 -20 -95 -38
-127 -86 -129 -263 -4 -352 l44 -30 276 0 c240 0 277 2 277 15 0 13 -38 16
-260 20 -283 5 -299 9 -344 66 -51 65 -50 149 5 213 29 35 102 66 141 58 33
-6 53 1 53 20 0 27 31 73 60 88 40 21 79 19 119 -6 47 -29 61 -20 61 41 0 141
140 238 268 184 67 -28 110 -80 126 -156 7 -31 39 -39 53 -14 4 8 26 24 47 37
107 62 247 -7 263 -130 5 -34 2 -42 -13 -46 -61 -19 -118 -75 -97 -96 7 -7 16
0 31 25 61 104 232 20 232 -114 0 -50 -19 -89 -60 -123 -43 -36 -89 -47 -207
-47 -96 0 -103 -1 -103 -20 0 -28 34 -34 154 -28 112 6 159 23 208 75 78 82
75 214 -7 295 l-28 28 730 0 c828 0 801 -2 878 75 78 77 75 46 75 916 0 518
-4 785 -11 819 -14 66 -62 127 -124 159 l-49 26 -384 3 -383 3 7 22 c32 104
108 167 201 167 60 0 107 -28 130 -75 19 -39 33 -46 33 -15 0 36 -66 97 -120
111 -49 13 -50 14 -50 51 0 79 57 163 135 199 84 39 203 16 266 -52 16 -17 35
-29 42 -26 7 3 21 33 30 66 33 117 129 191 248 191 154 -1 259 -106 259 -263
0 -80 14 -92 60 -53 87 72 212 26 245 -91 l11 -38 64 -1 c142 -1 237 -101 228
-240 -5 -74 -37 -130 -100 -171 l-41 -28 -336 -5 -336 -5 -3 -22 -3 -23 324 0
c374 0 391 3 467 80 165 164 62 435 -176 466 -47 6 -52 9 -68 45 -36 81 -136
131 -220 110 -63 -16 -66 -15 -66 22 0 47 -51 147 -95 186 -64 56 -129 81
-210 80 -38 0 -89 -7 -113 -16z m-36 -762 c22 -10 51 -31 63 -47 l23 -29 -156
-3 c-210 -3 -208 -22 3 -22 156 0 159 0 165 -22 8 -30 8 -1546 0 -1575 -6 -23
-9 -23 -165 -23 -211 0 -213 -19 -2 -22 l157 -3 -37 -37 c-20 -20 -54 -42 -74
-47 -25 -7 -297 -11 -789 -11 l-751 0 -25 50 -25 50 169 0 c105 0 168 4 168
10 0 6 -66 10 -177 10 -172 0 -178 1 -213 25 -65 45 -186 50 -243 10 -29 -21
-33 -19 -47 15 -7 17 -35 50 -61 74 l-49 44 0 695 c0 382 3 709 6 726 l7 31
388 0 c253 0 389 4 389 10 0 6 -135 10 -386 10 l-385 0 22 31 c12 17 40 40 63
50 39 18 86 19 981 19 894 0 942 -1 981 -19z"/>
<path d="M2370 3200 c0 -6 45 -10 115 -10 70 0 115 4 115 10 0 6 -45 10 -115
10 -70 0 -115 -4 -115 -10z"/>
<path d="M2680 3200 c0 -6 95 -10 265 -10 170 0 265 4 265 10 0 6 -95 10 -265
10 -170 0 -265 -4 -265 -10z"/>
<path d="M2003 2902 c-22 -27 -61 -79 -88 -115 -27 -37 -52 -67 -55 -67 -3 0
-28 23 -55 50 -51 52 -85 64 -85 32 0 -23 136 -156 150 -147 23 14 201 260
198 274 -6 30 -28 21 -65 -27z"/>
<path d="M2204 2748 c-4 -6 1 -17 11 -25 27 -19 713 -19 740 0 45 34 11 37
-370 37 -271 0 -376 -3 -381 -12z"/>
<path d="M3130 2741 c0 -10 7 -22 16 -25 25 -9 307 -7 323 3 8 5 11 16 8 25
-6 14 -30 16 -177 16 -160 0 -170 -1 -170 -19z"/>
<path d="M2003 2442 c-22 -27 -61 -79 -88 -115 -27 -37 -52 -67 -55 -67 -3 0
-28 23 -55 50 -50 51 -85 64 -85 32 0 -25 133 -154 151 -147 23 10 201 255
197 272 -6 32 -27 24 -65 -25z"/>
<path d="M2205 2290 c-4 -6 -1 -17 5 -25 10 -12 41 -15 145 -15 104 0 135 3
145 15 24 29 0 35 -145 35 -89 0 -146 -4 -150 -10z"/>
<path d="M2615 2290 c-4 -6 -1 -17 5 -25 11 -13 76 -15 424 -15 226 0 417 4
425 9 8 5 11 16 8 25 -6 14 -51 16 -431 16 -284 0 -427 -3 -431 -10z"/>
<path d="M2003 2032 c-22 -27 -61 -79 -88 -115 -27 -37 -52 -67 -55 -67 -3 0
-28 23 -55 50 -50 51 -85 64 -85 32 0 -25 133 -154 151 -147 23 10 201 255
197 272 -6 32 -27 24 -65 -25z"/>
<path d="M2205 1880 c-4 -6 -1 -17 5 -25 11 -13 88 -15 520 -15 280 0 515 3
524 6 9 3 16 15 16 25 0 18 -17 19 -529 19 -357 0 -532 -3 -536 -10z"/>
<path d="M2370 1560 c0 -6 43 -10 109 -10 63 0 112 4 116 10 4 6 -35 10 -109
10 -71 0 -116 -4 -116 -10z"/>
<path d="M2680 1560 c0 -6 95 -10 265 -10 170 0 265 4 265 10 0 6 -95 10 -265
10 -170 0 -265 -4 -265 -10z"/>
<path d="M3755 3650 c3 -5 18 -10 33 -10 67 0 142 -72 142 -136 0 -37 6 -40
34 -19 45 34 127 10 147 -42 7 -20 14 -24 32 -19 59 15 142 -36 153 -94 7 -35
24 -40 24 -7 0 58 -81 126 -152 127 -19 0 -38 12 -61 36 -26 29 -40 36 -72 37
-22 1 -50 -2 -61 -6 -18 -6 -22 -3 -27 21 -7 36 -50 88 -88 107 -32 17 -114
21 -104 5z"/>
<path d="M1395 1021 c-11 -18 5 -31 36 -31 24 0 30 4 27 18 -4 19 -52 29 -63
13z"/>
<path d="M1500 1010 c0 -17 7 -20 50 -20 43 0 50 3 50 20 0 17 -7 20 -50 20
-43 0 -50 -3 -50 -20z"/>
</g>
</svg>
